<?xml version="1.0" encoding="UTF-8"?>
<svg id="Calque_2" data-name="Calque 2" xmlns="http://www.w3.org/2000/svg" viewBox="0 0 346.75 442.62">
  <defs>
    <style>
      .cls-1 {
        fill: #024ca8;
      }

      .cls-1, .cls-2, .cls-3, .cls-4, .cls-5, .cls-6, .cls-7, .cls-8, .cls-9 {
        stroke-width: 0px;
      }

      .cls-2 {
        fill: #0175fc;
      }

      .cls-3 {
        fill: #646b73;
      }

      .cls-4 {
        fill: #a48003;
      }

      .cls-5 {
        fill: #fbc206;
      }

      .cls-6 {
        fill: #fefefe;
      }

      .cls-7 {
        fill: #54adfc;
      }

      .cls-8 {
        fill: #043efb;
      }

      .cls-9 {
        fill: #9ca2a8;
      }
    </style>
  </defs>
  <g id="Calque_1-2" data-name="Calque 1">
    <path class="cls-6" d="M45.09,13.34l.11.11c-.39-.35-.77-.7-1.16-1.05l.11.1c-.37-.36-.75-.71-1.12-1.07l.09.09-1.09-1.08.09.09c-.36-.38-.71-.75-1.07-1.13,0,0,.1.07.1.07-.36-.55-.66-1.16-1.11-1.63-1.69-1.76-3.44-3.46-5.16-5.19.1,2.32.2,4.64.29,6.96-.15,2.92-.83,5.93-.36,8.75,2.91,17.66,13.21,30.28,27.74,39.95,1.41.94,2.55,2.29,3.82,3.45-7.4,13.72-10.81,28.51-11.74,43.96-4.23,5.25-8.46,10.5-12.69,15.75-14.99,9.23-26.37,21.54-33.49,37.86C-.28,179.35-.49,200.35.29,221.55c-1.3,28.07,5.12,54.43,18.35,79.04,17.6,32.73,43.66,57.65,74.25,78.06,7.65,5.11,16.11,9.01,24.2,13.47,3.61,2.77,7.23,5.54,10.84,8.31,11.93,11.76,23.8,23.58,35.8,35.27,9.44,9.2,9.51,9.12,19.11.42.74-.67,1.59-1.22,2.29-1.92,11.27-11.25,22.53-22.51,33.78-33.77,3.63-2.72,7.27-5.44,10.9-8.16,3.53-1.72,7.21-3.21,10.58-5.21,29.95-17.75,56.43-39.48,76.5-68.24,20.56-29.47,31.61-61.93,29.62-98.26.03-2.75.06-5.49.09-8.24.01-.88.02-1.77.03-2.65-.95-11.22-.89-22.64-3.07-33.62-4.38-22.1-15.67-40.03-35.45-51.88-1.24-.98-2.48-1.96-3.73-2.94-4.03-5.17-8.06-10.34-12.09-15.51-.84-4.7-1.67-9.4-2.51-14.09-.1-1.07-.21-2.15-.31-3.22-1.52-5.32-3.03-10.64-4.55-15.96l.06.09-2.08-4.96s-.03-.06-.03-.06c-.32-.68-.65-1.37-.97-2.05,0,0,.07.1.07.1-.6-1.96-1.2-3.92-1.8-5.88,1.81-.76,3.77-1.27,5.4-2.32,10.98-7.03,19-16.63,23.58-28.8,1.63-4.33,1.95-9.16,2.86-13.76-.16-1.39-.33-2.78-.49-4.17.34-1.95.68-3.91,1.01-5.86-.07-.86-.14-1.73-.21-2.59-.85.83-1.7,1.66-2.56,2.49-12.09,13.38-26.11,23.74-44.22,27.26-3.02.59-6.33-.29-9.5-.5-16.62-15.82-36.53-25-58.93-29.13-1.07-.19-2.15-.39-3.22-.58-39.78-6-74.9,3.78-104.85,31.01-2.95-.31-6.18.04-8.79-1.06-9.8-4.13-19.4-8.75-29.07-13.18-.74-.62-1.48-1.24-2.23-1.86-.39-.34-.79-.68-1.18-1.02-.54-.45-1.08-.9-1.62-1.35l.13.13c-.4-.34-.8-.69-1.19-1.03Z"/>
    <path class="cls-7" d="M.29,221.55c-.79-21.2-.58-42.2,8.16-62.22,7.12-16.32,18.49-28.63,33.49-37.86,1.09,1.01,2.15,2.05,3.28,3.01,11.93,10.22,21.92,22.07,30.46,35.26,11.9,18.37,19.5,38.58,26.26,59.2,1.69,6.24,3.64,12.41,5.04,18.71,8.16,36.6,11.72,73.67,11.16,111.15-.14,9.12.05,18.24.09,27.37-1.85-.59-3.84-.91-5.53-1.81-5.98-3.2-11.86-6.61-17.78-9.93h.03c-.69-.36-1.37-.73-2.06-1.1-.72-.82-1.32-1.79-2.18-2.43-5.82-4.37-12.26-8.08-17.44-13.1-15.29-14.82-31.39-28.88-42.9-47.25-9.28-14.81-18.18-29.68-22.46-46.81-2.68-10.7-5.08-21.46-7.61-32.2Z"/>
    <path class="cls-7" d="M346.61,212.32c-.03,2.75-.06,5.49-.09,8.23-4.13,16.12-6.62,32.9-12.73,48.23-12.71,31.86-34.24,57.63-60.79,79.22-6.01,4.88-12.07,9.7-18.1,14.55-.66.31-1.31.62-1.97.93,0,0,.03,0,.03,0-2.69,1.55-5.3,3.25-8.08,4.61-5.18,2.52-10.47,4.84-15.71,7.25.03-.79.07-1.57.1-2.35v-.06c-.06-19.31-1.05-38.68.06-57.93,1.89-32.72,6.09-65.21,16.03-96.66l-.24-.32.21-.34c.43-1.08.86-2.17,1.29-3.25l.08-.2c.63-.36,1.63-.57,1.84-1.1,3.23-8.22,6.41-16.46,9.46-24.75.47-1.28.21-2.82.29-4.24.04-.32.16-.6.38-.84.69-.51,1.65-.88,2.04-1.56,2.52-4.39,5.04-8.79,7.3-13.32,1.33-2.68,2.19-5.59,3.26-8.4.08-.26.21-.49.41-.68.66-1,1.33-2.01,1.99-3.01l.69-1.31c1.94-2.62,3.89-5.24,5.83-7.87,0,0,.26-.37.26-.37.82-.24,1.91-.24,2.41-.77,4.25-4.54,8.43-9.15,12.52-13.84.64-.73.67-1.99.98-3l.17-.17c1.57-.62,3.16-1.22,4.72-1.87,2.31-.96,4.59-1.97,6.89-2.96,19.79,11.85,31.08,29.78,35.45,51.88,2.17,10.98,2.11,22.4,3.07,33.62-.01.88-.02,1.77-.04,2.65Z"/>
    <path class="cls-5" d="M258.67,183.28c-.22.24-.34.52-.38.84-3.86,10.03-7.73,20.06-11.59,30.09,0,0-.08.2-.08.2-.43,1.08-.86,2.17-1.29,3.25l-.21.34s.24.32.24.32c-3.71,2.13-7.4,4.3-11.13,6.39-4.61,2.58-9.55,7.5-13.8,6.98-4.26-.52-8.03-6.33-11.66-10.16-2.28-2.42-3.05-2.1-5.06.46-9.01,11.45-18.3,22.68-27.73,33.78-.71.83-3.98.73-5-.16-4.13-3.58-7.85-7.64-11.72-11.53-.72-.88-1.43-1.77-2.15-2.65l-.09-.12c-.25-.29-.49-.58-.74-.87l-.26-.34c-1.57-1.89-3.13-3.77-4.7-5.66l-.26-.31c-.65-.87-1.3-1.74-1.94-2.61,0,0-.17-.25-.17-.25-.19-.25-.37-.5-.56-.75-.03-.24-.16-.41-.38-.5-.91-1.48-1.83-2.96-2.74-4.45-.01-.21-.12-.35-.32-.42-3.16-7.42-3.69-7.55-8.87-1.96-.86.93-1.47,2.1-2.19,3.16l-.07.07-1.91,1.86s-.15.15-.15.15c-.62.58-1.24,1.16-1.86,1.74,0,0-.27.25-.27.25-.86.7-1.72,1.39-2.57,2.09-8.37-4.53-16.73-9.05-25.1-13.58-6.76-20.62-14.36-40.83-26.26-59.2-8.54-13.19-18.53-25.04-30.46-35.26-1.13-.97-2.19-2.01-3.28-3.01,4.23-5.25,8.46-10.5,12.69-15.75,2.41,1.94,4.83,3.88,7.25,5.81.54.43,1.08.86,1.63,1.28l.28.22.81.73c.36.28.72.56,1.08.84.76,1.06,1.35,2.29,2.28,3.16,27.59,25.69,55.19,51.37,82.84,77,6.08,5.64,12.38,11.04,18.53,16.61,3.39,3.07,6.44,2.63,9.58-.43,2.85-2.77,5.94-5.3,8.86-8.02,24.44-22.75,48.91-45.46,73.25-68.31,4.8-4.5,9.11-9.52,13.65-14.3.64-.57,1.28-1.14,1.92-1.71l.23-.04.08-.22c.33-.3.66-.59.98-.89.33-.27.66-.54,1-.81l.19-.13c.27-.22.53-.44.8-.66,0-.22.12-.33.33-.33.39.03.59-.14.59-.53,3.84-3.09,7.67-6.19,11.51-9.28,4.03,5.17,8.06,10.34,12.09,15.51-2.63,2.59-5.25,5.17-7.88,7.76,0,0-.17.17-.17.17-5.3,5.87-10.6,11.74-15.91,17.61,0,0-.26.37-.26.37-1.94,2.62-3.89,5.24-5.83,7.87-.23.44-.46.87-.69,1.31-.66,1-1.33,2.01-1.99,3.01-.19.19-.33.42-.41.68-4.2,7.76-8.4,15.52-12.6,23.28Z"/>
    <path class="cls-2" d="M65.67,114.61c-.36-.28-.72-.56-1.08-.84-.27-.25-.54-.49-.81-.73,0,0-.28-.22-.28-.22-.54-.43-1.08-.86-1.63-1.28-2.42-1.94-4.83-3.87-7.25-5.81.93-15.45,4.33-30.25,11.74-43.97.43-.65.85-1.29,1.28-1.94,1.37.94,2.69,1.97,4.13,2.81,2.03,1.18,4.14,2.22,6.22,3.32-.29,8.1-.58,16.19-.88,24.29,1.33,7.25.81,15.57,4.3,21.56,14.46,24.87,49.59,24.92,65.13,1.11,2.73-4.18,3.69-2.94,5.39.16,6.47,11.77,12.93,23.54,19.41,35.3.52.94,1.19,1.81,1.79,2.71.83-.96,1.84-1.82,2.45-2.9,5.34-9.56,10.64-19.14,15.88-28.76,5.63-10.32,5.07-9.84,13.09-1.2,8.42,9.07,19.18,13.78,32.07,12.63,12.42-1.11,20.19-8.98,27.64-17.78,6.18-7.29,7.8-15.37,5.67-24.45-.34-7.38-.67-14.76-1.01-22.14,4.22-2.14,8.45-4.24,13.05-.9,0,0-.07-.1-.07-.1.32.68.65,1.37.97,2.05,0,0,.03.06.03.06.69,1.65,1.39,3.31,2.08,4.96,0,0-.06-.09-.06-.09,1.52,5.32,3.03,10.64,4.55,15.96.1,1.07.21,2.15.31,3.22.07,1.4-.18,2.91.26,4.18,1.89,5.48.37,9.19-4.59,12.47-7.01,4.65-13.59,9.99-20.17,15.26-2.19,1.75-3.82,4.2-5.71,6.33-.07.22-.22.33-.44.33-.98.75-1.97,1.5-2.95,2.24-.32.21-.64.43-.97.64-3.35,2.45-6.69,4.89-10.04,7.34-.54.43-1.09.86-1.63,1.28-2.45,1.89-4.9,3.77-7.35,5.66-.35.27-.7.53-1.05.8-3.56,2.54-7.12,5.08-10.68,7.62-.03.21-.15.31-.36.33-.66.45-1.33.9-1.99,1.36-.29.21-.59.42-.88.63-1.09.81-2.17,1.62-3.26,2.44,0,0-.1.06-.1.06-.95.7-1.9,1.4-2.85,2.1l.03-.04c-.38.34-.76.68-1.14,1.02-.33.26-.66.51-.99.77-1,.72-1.99,1.45-2.99,2.17l.05-.05c-.4.34-.8.68-1.21,1.02-.34.26-.68.53-1.02.79-.97.73-1.95,1.46-2.92,2.19-9.37,7.16-18.63,14.48-28.24,21.31-1.52,1.08-5.31.82-6.9-.36-27.59-20.55-54.96-41.4-82.49-62.04-6.98-5.23-14.36-9.92-21.56-14.86Z"/>
    <path class="cls-2" d="M197.12,2.28c22.4,4.12,42.31,13.3,58.93,29.13-9.97,1.05-19.93,2.42-29.93,3.08-11.68.77-23.01,2.88-33.59,7.89-8.56,4.05-15.2,10.03-16.76,20.09-1.27-.04-2.55-.09-3.82-.13-2.54-10.7-10.24-16.84-19.67-20.69-12.64-5.17-25.99-7.14-39.7-7.21-7.85-.04-15.69-1.11-23.53-1.72C119,5.48,154.12-4.3,193.9,1.7c1.07.19,2.15.39,3.22.58Z"/>
    <path class="cls-8" d="M175.77,62.46c1.56-10.05,8.2-16.04,16.76-20.08,10.58-5,21.91-7.12,33.59-7.89,10-.66,19.96-2.03,29.93-3.08,3.17.2,6.48,1.08,9.5.5,18.11-3.52,32.13-13.88,44.22-27.26.92.04,1.84.07,2.77.11-.34,1.95-.68,3.91-1.01,5.86-.63,1.9-1.26,3.8-1.88,5.7-.14.27-.21.57-.22.88-.22.36-.44.72-.66,1.08-6.93,15.75-18.96,26.27-34.3,33.38-9.2,1.3-18.41,2.59-27.61,3.89-15.19,1.34-27.7,8.35-38.53,18.63-1.07,1.01-.68,3.55-.97,5.39-3.41,2.07-6.81,4.14-10.22,6.2-2.3-1.49-4.61-2.98-6.91-4.47-4.72-5.62-9.43-11.25-14.14-16.87-.11-.65-.22-1.3-.32-1.95Z"/>
    <path class="cls-8" d="M89.05,32.71c7.84.61,15.68,1.68,23.53,1.72,13.71.07,27.06,2.04,39.7,7.21,9.43,3.85,17.12,9.99,19.67,20.69-.07.35-.15.7-.22,1.05-.34.32-.67.64-1.01.96-1.36,1.65-2.72,3.31-4.09,4.96-3.76,4.09-7.51,8.18-11.27,12.26-2.72,2.96-5.34,2.81-8-.14-3.42-3.78-6.8-7.59-10.45-11.14-1.29-1.26-3.31-1.77-5-2.62,0,0-.07-.07-.07-.07-1.72-1.19-3.44-2.38-5.17-3.57l-.12-.12c-1.98-1.01-3.96-2.01-5.95-3.02-.34.02-.65-.08-.91-.3-.36-.2-.73-.4-1.09-.6-.37-.1-.74-.21-1.11-.31-1.2-1.01-2.3-2.73-3.63-2.94-13.91-2.11-27.85-3.97-41.79-5.9-.21-.1-.36-.26-.43-.48-4.17-2.24-8.34-4.49-12.52-6.73l-.24-.19c-1.94-1.58-3.89-3.17-5.83-4.75l-.23-.18c-.26-.25-.52-.51-.79-.76l-.26-.26c-.26-.26-.52-.51-.79-.77l-.19-.19c-.26-.27-.52-.55-.78-.82l-.2-.25c-.38-.55-.77-1.11-1.15-1.66h.03c-.32-.35-.64-.69-.95-1.03h-.06c-1.9-2.67-3.8-5.34-5.7-8.02,0,0-.18-.27-.18-.27-.31-.58-.62-1.17-.93-1.75-.2-.21-.29-.47-.25-.76-.57-1.07-1.15-2.14-1.72-3.21-.23-.24-.33-.52-.31-.85-.1-1.75-.08-3.52-.33-5.25-.19-1.36-.71-2.68-1.09-4.02,1.32.27,2.63.55,3.95.82,0,0-.1-.07-.1-.07.36.38.71.75,1.07,1.13,0,0-.09-.09-.09-.09.36.36.73.72,1.09,1.08,0,0-.09-.09-.09-.09.37.36.75.71,1.12,1.07,0,0-.11-.1-.11-.1.39.35.77.7,1.16,1.05,0,0-.11-.11-.11-.11.4.34.79.69,1.19,1.03,0,0-.13-.13-.13-.13.54.45,1.08.9,1.62,1.35.39.34.79.68,1.18,1.02.74.62,1.48,1.24,2.23,1.86,9.67,4.43,19.27,9.04,29.07,13.18,2.61,1.1,5.84.75,8.79,1.06Z"/>
    <path class="cls-9" d="M.29,221.55c2.53,10.73,4.94,21.5,7.61,32.2,4.28,17.12,13.18,32,22.46,46.81,11.52,18.37,27.61,32.43,42.9,47.25,5.18,5.02,11.62,8.73,17.44,13.1.85.64,1.46,1.61,2.18,2.43.69.37,1.37.74,2.06,1.12,0,0-.03-.01-.03-.01,2.68,3.5,5.29,7.07,8.05,10.5,4.65,5.77,9.4,11.46,14.11,17.18-8.09-4.46-16.54-8.36-24.2-13.47-30.59-20.4-56.66-45.32-74.25-78.06C5.42,275.97-1.01,249.61.29,221.55Z"/>
    <path class="cls-9" d="M254.89,362.55c6.04-4.85,12.1-9.67,18.1-14.55,26.55-21.59,48.08-47.36,60.79-79.22,6.12-15.33,8.6-32.1,12.73-48.23,1.99,36.33-9.06,68.79-29.62,98.26-20.07,28.77-46.55,50.49-76.5,68.24-3.37,2-7.04,3.48-10.58,5.21,1.56-2.28,2.95-4.69,4.7-6.82,6.08-7.38,12.28-14.66,18.43-21.97,0,0-.03,0-.03,0,.66-.31,1.31-.62,1.97-.93Z"/>
    <path class="cls-9" d="M218.92,400.42c-11.26,11.26-22.51,22.53-33.78,33.77-.7.7-1.55,1.25-2.29,1.92-9.6,8.7-9.67,8.77-19.11-.42-12-11.69-23.87-23.51-35.8-35.27q7.54,1.16,8.03-6.42c.01-.16.05-.32.08-.48.82.51,1.77.89,2.46,1.54,11.2,10.64,22.38,21.31,33.56,31.97.95-.04,1.89-.09,2.84-.13,7.15-6.65,14.28-13.32,21.47-19.93,5.06-4.65,10.21-9.21,15.32-13.8-.16,2.63-.32,5.27-.47,7.9,2.57-.22,5.14-.44,7.71-.65Z"/>
    <path class="cls-3" d="M218.92,400.42c-2.57.22-5.14.44-7.71.65.16-2.63.32-5.27.48-7.9-.05-.29-.09-.59-.14-.89,5.87-5.65,11.74-11.31,17.61-16.96,5.24-2.4,10.52-4.72,15.71-7.25,2.78-1.35,5.4-3.06,8.08-4.61-6.15,7.32-12.36,14.6-18.43,21.97-1.75,2.12-3.14,4.54-4.7,6.82-3.63,2.72-7.27,5.44-10.9,8.16Z"/>
    <path class="cls-3" d="M136.04,393.52c-.03.16-.07.32-.08.48q-.49,7.58-8.03,6.42c-3.61-2.77-7.23-5.54-10.84-8.31-4.71-5.72-9.46-11.41-14.11-17.18-2.77-3.43-5.37-6.99-8.05-10.5,5.92,3.33,11.79,6.73,17.78,9.93,1.68.9,3.68,1.22,5.53,1.82,1.4,1.12,2.88,2.15,4.2,3.36,4.58,4.23,9.1,8.53,13.64,12.8,0,.39-.02.79-.03,1.18Z"/>
    <path class="cls-9" d="M38.61,17.91c-.02.33.09.61.31.85.57,1.07,1.15,2.14,1.72,3.21-.04.29.05.55.25.76.31.58.62,1.17.93,1.75,0,0,.18.27.18.26,1.9,2.67,3.8,5.35,5.7,8.03,0,0,.06,0,.07,0,.32.34.63.68.95,1.02,0,0-.03,0-.03,0,.39.55.77,1.11,1.15,1.67,0,0,.2.25.19.24.26.27.52.55.78.83,0,0,.19.19.18.18.26.25.52.51.79.77,0,0,.26.26.25.26.26.25.52.51.79.76,0,0,.23.18.23.17,1.94,1.58,3.89,3.17,5.84,4.75,0,0,.24.19.24.19,4.17,2.24,8.35,4.49,12.52,6.74.08.22.22.38.43.47-1.48,2.99-2.95,5.98-4.43,8.97-.43.65-.85,1.29-1.28,1.94-1.27-1.16-2.4-2.51-3.82-3.45-14.53-9.67-24.83-22.29-27.74-39.95-.46-2.82.21-5.83.36-8.75,1.15,2.77,2.29,5.54,3.44,8.31Z"/>
    <path class="cls-9" d="M309.43,17.18c0-.31.07-.6.22-.87.79-.51,1.58-1.01,2.38-1.52-.92,4.6-1.23,9.43-2.86,13.76-4.58,12.17-12.6,21.78-23.58,28.8-1.63,1.04-3.59,1.56-5.4,2.32-1.9-2.67-3.81-5.35-5.71-8.02,15.34-7.11,27.36-17.63,34.3-33.38.22-.36.44-.72.66-1.09Z"/>
    <path class="cls-1" d="M274.47,51.65c1.9,2.67,3.81,5.35,5.71,8.02.6,1.96,1.2,3.92,1.8,5.89-4.6-3.33-8.83-1.24-13.05.9-5.03.49-10.05.99-15.08,1.48-.62-.3-1.25-.6-1.87-.9-1.71-3.83-3.41-7.67-5.12-11.5,9.2-1.3,18.41-2.59,27.61-3.89Z"/>
    <path class="cls-2" d="M259.59,129.86c1.89-2.13,3.52-4.58,5.71-6.33,6.58-5.27,13.15-10.61,20.17-15.26,4.95-3.28,6.48-6.99,4.59-12.47-.44-1.27-.19-2.78-.26-4.18.84,4.7,1.67,9.4,2.51,14.1-3.84,3.09-7.67,6.19-11.51,9.28-.2.18-.39.35-.59.53-.22,0-.33.11-.33.33-.27.22-.53.44-.8.66,0,0-.19.13-.19.13-.33.27-.66.54-1,.81-.33.3-.66.59-.98.89-.18-.02-.36-.03-.53-.05.07.1.15.2.22.31-.64.57-1.28,1.14-1.92,1.71-1.53.83-3.12,1.57-4.58,2.51-3.53,2.29-7,4.68-10.5,7.03Z"/>
    <path class="cls-1" d="M38.61,17.91c-1.15-2.77-2.29-5.54-3.44-8.31-.1-2.32-.2-4.64-.29-6.96,1.72,1.73,3.47,3.43,5.16,5.19.45.47.74,1.08,1.11,1.63-1.32-.27-2.63-.55-3.95-.82.37,1.34.89,2.66,1.09,4.02.25,1.73.23,3.5.33,5.25Z"/>
    <path class="cls-7" d="M296.52,128.99c2.63-2.59,5.25-5.17,7.88-7.76,1.24.98,2.48,1.96,3.73,2.94-2.3.99-4.58,1.99-6.89,2.96-1.56.65-3.14,1.25-4.72,1.87Z"/>
    <path class="cls-1" d="M289.49,88.4c-1.52-5.32-3.03-10.64-4.55-15.96,1.52,5.32,3.03,10.64,4.55,15.96Z"/>
    <path class="cls-7" d="M312.02,14.79c-.79.51-1.58,1.02-2.38,1.52.63-1.9,1.26-3.8,1.88-5.7.16,1.39.33,2.78.49,4.18Z"/>
    <path class="cls-1" d="M312.54,4.75c-.92-.04-1.84-.07-2.77-.11.85-.83,1.7-1.66,2.55-2.49.07.86.14,1.73.21,2.59Z"/>
    <path class="cls-1" d="M285,72.53c-.69-1.65-1.39-3.31-2.08-4.96.69,1.65,1.39,3.31,2.08,4.96Z"/>
    <path class="cls-1" d="M51.18,18.47c-.74-.62-1.48-1.24-2.23-1.86.74.62,1.48,1.24,2.23,1.86Z"/>
    <path class="cls-7" d="M197.12,2.28c-1.07-.19-2.15-.39-3.22-.58,1.07.19,2.15.39,3.22.58Z"/>
    <path class="cls-9" d="M346.61,212.32c.01-.89.02-1.77.04-2.65-.01.89-.02,1.77-.04,2.65Z"/>
    <path class="cls-1" d="M47.78,15.59c-.54-.45-1.08-.9-1.62-1.35.54.45,1.08.9,1.62,1.35Z"/>
    <path class="cls-1" d="M282.89,67.51c-.32-.68-.65-1.37-.97-2.05.32.68.65,1.37.97,2.05Z"/>
    <path class="cls-1" d="M44.15,12.5c-.37-.36-.75-.71-1.12-1.07.37.36.75.71,1.12,1.07Z"/>
    <path class="cls-1" d="M43.12,11.52c-.36-.36-.73-.72-1.09-1.08.36.36.73.72,1.09,1.08Z"/>
    <path class="cls-1" d="M45.2,13.45c-.39-.35-.77-.7-1.16-1.05.39.35.77.7,1.16,1.05Z"/>
    <path class="cls-1" d="M46.28,14.37c-.4-.34-.79-.69-1.19-1.03.4.34.79.69,1.19,1.03Z"/>
    <path class="cls-1" d="M42.11,10.53c-.36-.38-.71-.75-1.07-1.13.36.38.71.75,1.07,1.13Z"/>
    <path class="cls-1" d="M136.07,392.34c-4.54-4.27-9.06-8.56-13.64-12.8-1.31-1.21-2.79-2.25-4.2-3.36-.04-9.12-.22-18.25-.09-27.37.57-37.49-3-74.55-11.16-111.15-1.4-6.3-3.35-12.48-5.04-18.71,8.37,4.53,16.73,9.05,25.1,13.58.86-.7,1.72-1.39,2.57-2.09,0,0,.27-.25.27-.25.62-.58,1.24-1.16,1.86-1.74,0,0,.15-.15.15-.15.64-.62,1.28-1.24,1.91-1.86,0,0,.07-.07.07-.07,3.53-1.82,6.86-5.48,11.06-1.2.2.07.31.21.32.42.91,1.48,1.83,2.96,2.75,4.45.22.09.35.26.38.5.19.25.37.5.56.75,0,0,.17.25.17.25.65.87,1.3,1.74,1.95,2.61,0,0,.26.31.26.31,1.57,1.89,3.13,3.77,4.7,5.66,0,0,.26.34.26.33.24.29.49.58.74.87,0,0,.09.12.09.12.72.88,1.43,1.77,2.15,2.65,3.87,3.88,7.59,7.94,11.72,11.53,1.02.89,4.29.99,5,.16,9.44-11.1,18.73-22.33,27.73-33.78,2.02-2.57,2.78-2.88,5.06-.46,3.62,3.83,7.4,9.64,11.66,10.16,4.25.52,9.19-4.4,13.8-6.98,3.73-2.09,7.42-4.25,11.13-6.39-9.94,31.45-14.15,63.93-16.03,96.66-1.11,19.25-.11,38.62-.06,57.93,0,0,0,.07,0,.07-.03.78-.07,1.57-.1,2.35-5.87,5.66-11.74,11.31-17.61,16.97-.16-1.62-.55-3.24-.46-4.85.56-10.6.87-21.23,1.91-31.79,1.56-15.82,2.66-31.78,5.74-47.33,4.18-21.06,10.07-41.78,15.14-62.67.44-1.8.26-3.75.37-5.64-1.52.86-3.15,1.58-4.55,2.6-9.83,7.15-10.94,7.07-19.81-1.73-.24-.23-.51-.45-.7-.71-2.14-2.89-3.53-2.57-5.85.33-8.4,10.48-17.29,20.57-25.8,30.96-3.1,3.79-5.45,3.3-8.29-.16-7.56-9.23-15.37-18.24-22.82-27.55-4.21-5.26-5.88-5.95-10.34-2.67-10.07,7.41-10.85,7.38-20.61-.31-1-.79-2.3-1.19-3.46-1.78.11,1.34.02,2.74.35,4.02,4.81,18.29,10.39,36.42,14.38,54.89,6.71,31.07,8.22,62.76,9.32,94.45Z"/>
    <path class="cls-3" d="M94.96,364.45c-.69-.37-1.37-.74-2.06-1.12.69.37,1.37.74,2.06,1.12Z"/>
    <path class="cls-9" d="M246.69,214.21c3.87-10.03,7.73-20.06,11.59-30.09-.08,1.42.18,2.96-.29,4.24-3.05,8.29-6.23,16.53-9.46,24.75-.21.53-1.21.74-1.84,1.1Z"/>
    <path class="cls-9" d="M258.67,183.28c4.2-7.76,8.4-15.52,12.6-23.28-1.07,2.81-1.93,5.72-3.26,8.4-2.26,4.53-4.78,8.92-7.3,13.32-.39.69-1.35,1.05-2.04,1.56Z"/>
    <path class="cls-7" d="M280.44,146.77c5.3-5.87,10.61-11.74,15.91-17.61-.31,1.01-.34,2.27-.98,3-4.08,4.69-8.27,9.29-12.52,13.84-.5.54-1.59.53-2.41.77Z"/>
    <path class="cls-9" d="M274.35,155c1.95-2.62,3.89-5.24,5.83-7.87-1.95,2.62-3.89,5.24-5.83,7.87Z"/>
    <path class="cls-9" d="M271.67,159.33c.66-1,1.33-2.01,1.99-3.01-.66,1-1.33,2.01-1.99,3.01Z"/>
    <path class="cls-9" d="M245.32,217.66c.43-1.08.86-2.17,1.29-3.25-.43,1.08-.86,2.17-1.29,3.25Z"/>
    <path class="cls-3" d="M254.89,362.55c-.66.31-1.31.62-1.97.93.66-.31,1.31-.62,1.97-.93Z"/>
    <path class="cls-3" d="M229.26,372.97s0-.07,0-.07c0,0,0,.07,0,.07Z"/>
    <path class="cls-4" d="M259.59,129.86c3.5-2.35,6.97-4.74,10.5-7.03,1.46-.95,3.05-1.68,4.58-2.51-4.54,4.78-8.85,9.8-13.65,14.3-24.35,22.85-48.81,45.56-73.25,68.31-2.92,2.71-6.01,5.24-8.86,8.02-3.15,3.06-6.2,3.49-9.58.43-6.15-5.57-12.45-10.97-18.53-16.61-27.65-25.63-55.25-51.3-82.84-77-.93-.87-1.53-2.1-2.28-3.16,7.19,4.94,14.57,9.63,21.55,14.86,27.53,20.63,54.9,41.49,82.49,62.04,1.59,1.19,5.39,1.44,6.9.36,9.61-6.83,18.86-14.15,28.24-21.31.97-.73,1.95-1.46,2.92-2.19.34-.26.68-.53,1.02-.79.4-.34.8-.68,1.21-1.02,0,0-.05.05-.05.05,1-.72,1.99-1.45,2.99-2.17.33-.26.66-.51.99-.77.38-.34.76-.68,1.14-1.02,0,0-.03.04-.03.04.95-.7,1.9-1.4,2.85-2.1,0,0,.1-.06.1-.06,1.09-.81,2.17-1.62,3.26-2.44.29-.21.59-.42.88-.63.66-.45,1.33-.9,1.99-1.36.21-.01.33-.12.36-.33,3.56-2.54,7.12-5.08,10.68-7.62.35-.27.7-.53,1.04-.79,2.45-1.89,4.9-3.77,7.36-5.66.54-.43,1.09-.86,1.63-1.28,3.34-2.45,6.69-4.89,10.04-7.34.32-.21.64-.43.96-.64.98-.75,1.97-1.5,2.95-2.25.23,0,.37-.12.44-.33Z"/>
    <path class="cls-1" d="M144.94,225.16c-4.19-4.27-7.53-.61-11.06,1.2.72-1.06,1.33-2.23,2.19-3.16,5.18-5.59,5.71-5.46,8.87,1.96Z"/>
    <path class="cls-3" d="M156.01,240.1c-1.57-1.89-3.13-3.77-4.7-5.66,1.57,1.89,3.13,3.77,4.7,5.66Z"/>
    <path class="cls-3" d="M148,230.03c-.92-1.48-1.83-2.97-2.75-4.45.92,1.48,1.83,2.97,2.75,4.45Z"/>
    <path class="cls-3" d="M129.62,230.43c-.86.7-1.72,1.39-2.57,2.09.86-.7,1.72-1.39,2.57-2.09Z"/>
    <path class="cls-3" d="M159.25,244.08c-.72-.88-1.43-1.77-2.15-2.65.72.88,1.43,1.77,2.15,2.65Z"/>
    <path class="cls-3" d="M151.06,234.14c-.65-.87-1.3-1.74-1.95-2.61.65.87,1.3,1.74,1.95,2.61Z"/>
    <path class="cls-3" d="M133.81,226.43c-.64.62-1.28,1.24-1.91,1.86.64-.62,1.28-1.24,1.91-1.86Z"/>
    <path class="cls-3" d="M131.75,228.44c-.62.58-1.24,1.16-1.86,1.74.62-.58,1.24-1.16,1.86-1.74Z"/>
    <path class="cls-4" d="M61.88,111.53c.54.43,1.08.85,1.63,1.28-.54-.43-1.08-.85-1.63-1.28Z"/>
    <path class="cls-3" d="M148.94,231.28c-.19-.25-.37-.5-.56-.75.19.25.37.5.56.75Z"/>
    <path class="cls-3" d="M157.01,241.31c-.25-.29-.49-.58-.74-.87.25.29.49.58.74.87Z"/>
    <path class="cls-4" d="M276.59,118.61c-.07-.1-.15-.2-.22-.31.18.02.36.03.53.05,0,0-.08.22-.08.22l-.23.04Z"/>
    <path class="cls-4" d="M277.89,117.46c.33-.27.66-.54,1-.81-.33.27-.66.54-1,.81Z"/>
    <path class="cls-4" d="M279.07,116.52c.27-.22.54-.44.8-.66-.27.22-.54.44-.8.66Z"/>
    <path class="cls-4" d="M280.21,115.53c.2-.18.4-.36.59-.53,0,.39-.2.57-.59.53Z"/>
    <path class="cls-4" d="M63.78,113.03c.27.24.54.49.81.73-.27-.24-.54-.49-.81-.73Z"/>
    <path class="cls-1" d="M131.91,67.66c1.69.85,3.7,1.36,5,2.62,3.65,3.55,7.03,7.36,10.45,11.14,2.67,2.95,5.28,3.1,8,.14,3.76-4.09,7.52-8.18,11.27-12.26.24.21.47.42.71.64-4.12,5.19-8.45,10.23-12.22,15.66-1.15,1.65-1.75,4.83-.95,6.52,5.56,11.68,11.55,23.16,17.46,34.68.48.93,1.39,1.63,2.1,2.44.68-.88,1.53-1.67,2.01-2.65,4.75-9.5,9.18-19.17,14.25-28.5,3.12-5.74,5.26-10.92-.46-16.17.23-.22.46-.43.7-.64,2.3,1.49,4.61,2.98,6.91,4.47-.29,1.54-1.3,3.45-.73,4.55,2.93,5.7,5.25,12.2,9.64,16.57,23.32,23.25,58.48,8.2,63.9-18.28,2.14,9.08.51,17.16-5.67,24.45-7.45,8.79-15.22,16.66-27.64,17.78-12.89,1.15-23.65-3.56-32.07-12.63-8.02-8.64-7.46-9.11-13.09,1.2-5.25,9.61-10.55,19.2-15.88,28.76-.61,1.08-1.62,1.94-2.45,2.9-.6-.9-1.27-1.76-1.79-2.71-6.48-11.76-12.94-23.54-19.41-35.3-1.7-3.1-2.66-4.34-5.39-.16-15.54,23.81-50.67,23.76-65.13-1.11-3.49-5.99-2.97-14.31-4.3-21.55,3.74,6.03,6.44,13.13,11.39,17.9,18.77,18.09,49.81,11.28,60.46-12.69,3.66-8.23-.32-14.28-9.78-14.87-.1-3.48.12-7.11-4.17-8.54-1.04-1.46-2.07-2.91-3.11-4.37Z"/>
    <path class="cls-7" d="M269.95,88.6c-5.42,26.48-40.58,41.53-63.9,18.28-4.38-4.37-6.7-10.88-9.64-16.57-.57-1.1.45-3.02.73-4.55,3.41-2.07,6.81-4.14,10.22-6.2.35,0,.69-.01,1.04-.02,3.12,11.55,13.87,18.7,25.63,17.06,11.41-1.59,19.83-11.5,19.75-23.22-.01-1.81.04-3.62.07-5.44,5.03-.49,10.05-.99,15.08-1.48.34,7.38.67,14.76,1.01,22.14Z"/>
    <path class="cls-7" d="M139.19,80.57c9.46.58,13.44,6.63,9.78,14.87-10.65,23.97-41.68,30.78-60.46,12.69-4.95-4.77-7.65-11.86-11.39-17.9.29-8.1.59-16.19.88-24.29,4.97.85,9.94,1.69,14.92,2.54.06,1.81.16,3.63.18,5.44.2,15.38,14.91,26.26,29.7,22.11,8.24-2.32,12.63-8.5,16.39-15.46Z"/>
    <path class="cls-1" d="M92.91,68.48c-4.97-.85-9.95-1.69-14.92-2.54-2.08-1.1-4.19-2.14-6.22-3.32-1.43-.84-2.75-1.87-4.13-2.81,1.47-2.99,2.95-5.98,4.43-8.97,13.94,1.93,27.88,3.8,41.79,5.9,1.33.2,2.42,1.92,3.63,2.94-4.06-1.1-8.12-2.2-12.18-3.3-1.23-.03-2.46-.06-3.68-.09-2.57,3.69-5.14,7.38-7.71,11.07-.34.37-.67.75-1.01,1.12Z"/>
    <path class="cls-1" d="M235.17,148.16c-3.56,2.54-7.12,5.08-10.68,7.62,3.56-2.54,7.12-5.08,10.68-7.62Z"/>
    <path class="cls-1" d="M255.24,133.08c-3.35,2.45-6.69,4.9-10.04,7.34,3.35-2.45,6.69-4.9,10.04-7.34Z"/>
    <path class="cls-1" d="M243.57,141.71c-2.45,1.89-4.91,3.78-7.36,5.66,2.45-1.89,4.91-3.78,7.36-5.66Z"/>
    <path class="cls-1" d="M259.15,130.2c-.99.75-1.97,1.5-2.95,2.25.99-.75,1.97-1.5,2.95-2.25Z"/>
    <path class="cls-1" d="M221.26,158.09c-1.09.81-2.17,1.62-3.26,2.44,1.09-.81,2.17-1.62,3.26-2.44Z"/>
    <path class="cls-1" d="M212.95,164.44c-1,.72-1.99,1.45-2.99,2.17,1-.72,1.99-1.45,2.99-2.17Z"/>
    <path class="cls-1" d="M217.9,160.59c-.95.7-1.9,1.4-2.85,2.1.95-.7,1.9-1.4,2.85-2.1Z"/>
    <path class="cls-1" d="M224.13,156.11c-.66.45-1.33.91-1.99,1.36.67-.45,1.33-.91,1.99-1.36Z"/>
    <path class="cls-1" d="M207.78,168.38c-.97.73-1.95,1.46-2.92,2.19.97-.73,1.95-1.46,2.92-2.19Z"/>
    <path class="cls-1" d="M210.01,166.56c-.4.34-.8.68-1.21,1.02.4-.34.8-.68,1.21-1.02Z"/>
    <path class="cls-1" d="M215.08,162.65c-.38.34-.76.68-1.14,1.02.38-.34.76-.68,1.14-1.02Z"/>
    <path class="cls-1" d="M171.72,63.38c.07-.35.15-.7.22-1.05,1.27.04,2.55.09,3.82.13.11.65.21,1.3.32,1.95-.19.18-.39.37-.58.55-1.09-.35-2.19-.7-3.28-1.05-.17-.18-.34-.36-.51-.54Z"/>
    <path class="cls-9" d="M208.4,79.53c-.35,0-.69.01-1.04.02.29-1.83-.09-4.37.97-5.39,10.82-10.28,23.33-17.29,38.53-18.63,1.71,3.83,3.41,7.67,5.12,11.5-3.62.46-7.4.42-10.82,1.49-10.99,3.44-21.85,7.3-32.76,11Z"/>
    <path class="cls-1" d="M176.09,64.41c4.71,5.63,9.43,11.25,14.14,16.87-.24.21-.47.42-.7.64-4.67-5.65-9.35-11.31-14.02-16.96.19-.19.38-.37.58-.55Z"/>
    <path class="cls-7" d="M309.43,17.18c-.22.36-.44.73-.66,1.09.22-.36.44-.72.66-1.09Z"/>
    <path class="cls-9" d="M93.92,67.36c2.57-3.69,5.14-7.38,7.72-11.06,1.23.03,2.46.06,3.68.09,4.06,1.1,8.12,2.2,12.18,3.3.36.1.73.21,1.1.31.36.2.73.4,1.09.6.26.22.57.32.91.3,1.98,1.01,3.96,2.01,5.95,3.02,0,0,.12.12.12.12,1.72,1.19,3.44,2.38,5.16,3.57,0,0,.07.07.07.07,1.04,1.46,2.07,2.91,3.11,4.37-3.92.22-7.94,1.09-11.75.54-9.83-1.41-19.57-3.44-29.34-5.22Z"/>
    <path class="cls-1" d="M71.65,50.37c-4.17-2.25-8.35-4.49-12.52-6.74,4.17,2.25,8.35,4.49,12.52,6.74Z"/>
    <path class="cls-1" d="M47.71,32.78c-1.9-2.68-3.8-5.35-5.7-8.03,1.9,2.68,3.8,5.35,5.7,8.03Z"/>
    <path class="cls-1" d="M58.89,43.44c-1.95-1.58-3.89-3.17-5.84-4.75,1.95,1.59,3.89,3.17,5.84,4.75Z"/>
    <path class="cls-1" d="M166.63,69.3c1.36-1.65,2.72-3.31,4.09-4.96.21.21.43.41.65.61-1.35,1.67-2.69,3.33-4.04,5-.23-.22-.47-.43-.71-.64Z"/>
    <path class="cls-1" d="M131.84,67.59c-1.72-1.19-3.44-2.39-5.16-3.57,1.72,1.19,3.44,2.38,5.16,3.57Z"/>
    <path class="cls-1" d="M126.55,63.9c-1.98-1.01-3.96-2.02-5.95-3.02,1.98,1.01,3.96,2.01,5.95,3.02Z"/>
    <path class="cls-1" d="M40.64,21.98c-.57-1.07-1.15-2.14-1.72-3.21.57,1.07,1.15,2.14,1.72,3.21Z"/>
    <path class="cls-1" d="M49.84,35.47c-.38-.56-.77-1.11-1.15-1.67.38.56.77,1.11,1.15,1.67Z"/>
    <path class="cls-1" d="M41.82,24.49c-.31-.59-.62-1.17-.93-1.75.31.59.62,1.17.93,1.75Z"/>
    <path class="cls-1" d="M51.79,37.49c-.26-.26-.53-.51-.79-.77.26.26.52.51.79.77Z"/>
    <path class="cls-1" d="M52.83,38.51c-.26-.26-.53-.51-.79-.76.26.26.53.51.79.76Z"/>
    <path class="cls-1" d="M48.72,33.8c-.32-.34-.63-.68-.95-1.02.32.34.63.68.95,1.02Z"/>
    <path class="cls-1" d="M170.72,64.34c.34-.32.67-.64,1.01-.96.17.17.34.35.51.54-.29.34-.58.69-.86,1.03-.22-.2-.44-.4-.65-.61Z"/>
    <path class="cls-1" d="M50.82,36.54c-.26-.28-.52-.55-.78-.83.26.28.52.55.78.83Z"/>
    <path class="cls-1" d="M119.7,60.59c-.36-.2-.73-.4-1.09-.6.36.2.73.4,1.09.6Z"/>
    <path class="cls-2" d="M136.07,392.34c-1.11-31.68-2.61-63.38-9.32-94.45-3.99-18.47-9.57-36.59-14.38-54.89-.34-1.28-.25-2.68-.35-4.02,1.16.58,2.46.99,3.46,1.78,9.76,7.69,10.54,7.72,20.61.31,4.46-3.28,6.12-2.59,10.34,2.67,7.45,9.31,15.27,18.33,22.82,27.55,2.84,3.47,5.18,3.95,8.29.16,8.51-10.39,17.4-20.48,25.8-30.96,2.32-2.9,3.71-3.23,5.85-.33.2.26.46.48.7.71,8.86,8.81,9.98,8.89,19.81,1.73,1.4-1.02,3.03-1.74,4.55-2.6-.11,1.88.07,3.83-.37,5.64-5.07,20.89-10.96,41.6-15.14,62.67-3.08,15.55-4.19,31.51-5.74,47.33-1.04,10.56-1.36,21.19-1.91,31.79-.08,1.6.3,3.23.46,4.85.04.29.09.59.14.88-5.11,4.6-10.26,9.15-15.32,13.8-7.19,6.61-14.32,13.28-21.47,19.92-.95.04-1.89.09-2.84.14-11.18-10.66-22.35-21.34-33.56-31.97-.69-.65-1.63-1.04-2.46-1.54.01-.39.02-.79.03-1.18Z"/>
    <path class="cls-3" d="M172.06,427.04c.95-.05,1.89-.09,2.84-.14-.95.05-1.89.09-2.84.14Z"/>
    <path class="cls-6" d="M208.4,79.53c10.91-3.7,21.77-7.56,32.76-11,3.43-1.07,7.21-1.02,10.82-1.49.62.3,1.25.6,1.87.9-.02,1.81-.08,3.63-.07,5.44.08,11.72-8.34,21.63-19.75,23.22-11.77,1.64-22.51-5.51-25.63-17.06Z"/>
    <path class="cls-5" d="M171.37,64.95c.29-.34.58-.69.86-1.03,1.09.35,2.19.7,3.28,1.05,4.67,5.65,9.35,11.31,14.02,16.96,5.72,5.25,3.58,10.43.46,16.17-5.07,9.33-9.5,19-14.25,28.5-.49.97-1.33,1.77-2.01,2.65-.71-.81-1.63-1.51-2.1-2.44-5.91-11.52-11.9-23-17.46-34.68-.8-1.69-.2-4.87.95-6.52,3.78-5.43,8.11-10.47,12.22-15.66,1.35-1.67,2.69-3.33,4.04-5Z"/>
    <path class="cls-6" d="M93.92,67.36c9.77,1.78,19.51,3.81,29.34,5.22,3.81.55,7.83-.32,11.75-.54,4.29,1.43,4.08,5.06,4.17,8.54-3.76,6.95-8.15,13.14-16.39,15.46-14.79,4.16-29.5-6.72-29.7-22.11-.02-1.82-.12-3.63-.18-5.44.34-.37.67-.75,1.01-1.12Z"/>
    <path class="cls-7" d="M105.32,56.38c-1.23-.03-2.45-.06-3.68-.09,1.23.03,2.45.06,3.68.09Z"/>
  </g>
</svg>